<svg version="1.1" viewBox="0.0 0.0 594.0 936.0" fill="none" stroke="none" stroke-linecap="square" stroke-miterlimit="10" xmlns:xlink="http://www.w3.org/1999/xlink" xmlns="http://www.w3.org/2000/svg"><clipPath id="p.0"><path d="m0 0l594.0 0l0 936.0l-594.0 0l0 -936.0z" clip-rule="nonzero"/></clipPath><g clip-path="url(#p.0)"><path fill="#000000" fill-opacity="0.0" d="m0 0l594.0 0l0 936.0l-594.0 0z" fill-rule="evenodd"/><path fill="#000000" fill-opacity="0.0" d="m0 139.13387l413.98425 0l0 392.8819l-413.98425 0z" fill-rule="evenodd"/><path stroke="#0000ff" stroke-width="2.0" stroke-linejoin="round" stroke-linecap="butt" d="m0 139.13387l413.98425 0l0 392.8819l-413.98425 0z" fill-rule="evenodd"/><path fill="#000000" fill-opacity="0.0" d="m220.0 33.11811l413.98425 0l0 392.8819l-413.98425 0z" fill-rule="evenodd"/><path stroke="#0000ff" stroke-width="2.0" stroke-linejoin="round" stroke-linecap="butt" d="m220.0 33.11811l413.98425 0l0 392.8819l-413.98425 0z" fill-rule="evenodd"/><path fill="#000000" fill-opacity="0.0" d="m164.01575 509.56693l413.98425 0l0 392.88187l-413.98425 0z" fill-rule="evenodd"/><path stroke="#0000ff" stroke-width="2.0" stroke-linejoin="round" stroke-linecap="butt" d="m164.01575 509.56693l413.98425 0l0 392.88187l-413.98425 0z" fill-rule="evenodd"/><path fill="#000000" fill-opacity="0.0" d="m236.38058 52.700787l139.74802 0l0 66.48819l-139.74802 0z" fill-rule="evenodd"/><path stroke="#000000" stroke-width="2.0" stroke-linejoin="round" stroke-linecap="butt" d="m236.38058 52.700787l139.74802 0l0 66.48819l-139.74802 0z" fill-rule="evenodd"/><path fill="#000000" fill-opacity="0.0" d="m59.351707 301.22046l125.07087 0l0 101.82678l-125.07087 0z" fill-rule="evenodd"/><path stroke="#000000" stroke-width="2.0" stroke-linejoin="round" stroke-linecap="butt" d="m59.351707 301.22046l125.07087 0l0 101.82678l-125.07087 0z" fill-rule="evenodd"/><path fill="#000000" fill-opacity="0.0" d="m103.28871 443.07874l81.133865 0l0 66.48819l-81.133865 0z" fill-rule="evenodd"/><path stroke="#000000" stroke-width="2.0" stroke-linejoin="round" stroke-linecap="butt" d="m103.28871 443.07874l81.133865 0l0 66.48819l-81.133865 0z" fill-rule="evenodd"/><path fill="#000000" fill-opacity="0.0" d="m115.073494 152.70079l139.74802 0l0 66.48819l-139.74802 0z" fill-rule="evenodd"/><path stroke="#000000" stroke-width="2.0" stroke-linejoin="round" stroke-linecap="butt" d="m115.073494 152.70079l139.74802 0l0 66.48819l-139.74802 0z" fill-rule="evenodd"/><path fill="#000000" fill-opacity="0.0" d="m173.68767 559.07874l81.13385 0l0 66.48822l-81.13385 0z" fill-rule="evenodd"/><path stroke="#000000" stroke-width="2.0" stroke-linejoin="round" stroke-linecap="butt" d="m173.68767 559.07874l81.13385 0l0 66.48822l-81.13385 0z" fill-rule="evenodd"/></g></svg>