<svg version="1.1" viewBox="0.0 0.0 608.0 796.0" fill="none" stroke="none" stroke-linecap="square" stroke-miterlimit="10" xmlns:xlink="http://www.w3.org/1999/xlink" xmlns="http://www.w3.org/2000/svg"><clipPath id="p.0"><path d="m0 0l608.0 0l0 796.0l-608.0 0l0 -796.0z" clip-rule="nonzero"/></clipPath><g clip-path="url(#p.0)"><path fill="#000000" fill-opacity="0.0" d="m0 0l608.0 0l0 796.0l-608.0 0z" fill-rule="evenodd"/><path fill="#000000" fill-opacity="0.0" d="m30.0 355.5866l413.98425 0l0 392.8819l-413.98425 0z" fill-rule="evenodd"/><path stroke="#0000ff" stroke-width="2.0" stroke-linejoin="round" stroke-linecap="butt" d="m30.0 355.5866l413.98425 0l0 392.8819l-413.98425 0z" fill-rule="evenodd"/><path fill="#000000" fill-opacity="0.0" d="m95.26247 13.531496l413.98425 0l0 392.8819l-413.98425 0z" fill-rule="evenodd"/><path stroke="#0000ff" stroke-width="2.0" stroke-linejoin="round" stroke-linecap="butt" d="m95.26247 13.531496l413.98425 0l0 392.8819l-413.98425 0z" fill-rule="evenodd"/><path fill="#000000" fill-opacity="0.0" d="m232.38058 136.72835l139.74802 0l0 66.48819l-139.74802 0z" fill-rule="evenodd"/><path stroke="#000000" stroke-width="2.0" stroke-linejoin="round" stroke-linecap="butt" d="m232.38058 136.72835l139.74802 0l0 66.48819l-139.74802 0z" fill-rule="evenodd"/><path fill="#000000" fill-opacity="0.0" d="m55.351707 385.24802l125.07087 0l0 101.82678l-125.07087 0z" fill-rule="evenodd"/><path stroke="#000000" stroke-width="2.0" stroke-linejoin="round" stroke-linecap="butt" d="m55.351707 385.24802l125.07087 0l0 101.82678l-125.07087 0z" fill-rule="evenodd"/><path fill="#000000" fill-opacity="0.0" d="m99.28871 527.1063l81.133865 0l0 66.48816l-81.133865 0z" fill-rule="evenodd"/><path stroke="#000000" stroke-width="2.0" stroke-linejoin="round" stroke-linecap="butt" d="m99.28871 527.1063l81.133865 0l0 66.48816l-81.133865 0z" fill-rule="evenodd"/><path fill="#000000" fill-opacity="0.0" d="m111.073494 236.72835l139.74802 0l0 66.488174l-139.74802 0z" fill-rule="evenodd"/><path stroke="#000000" stroke-width="2.0" stroke-linejoin="round" stroke-linecap="butt" d="m111.073494 236.72835l139.74802 0l0 66.488174l-139.74802 0z" fill-rule="evenodd"/><path fill="#000000" fill-opacity="0.0" d="m169.68767 643.1063l81.13385 0l0 66.48816l-81.13385 0z" fill-rule="evenodd"/><path stroke="#000000" stroke-width="2.0" stroke-linejoin="round" stroke-linecap="butt" d="m169.68767 643.1063l81.13385 0l0 66.48816l-81.13385 0z" fill-rule="evenodd"/></g></svg>